<svg width="223" height="235" viewBox="0 0 223 235" fill="none" xmlns="http://www.w3.org/2000/svg">
<g filter="url(#filter0_d_71_14715)">
<rect x="63" width="126.005" height="109.221" rx="54.6105" fill="white"/>
<path fill-rule="evenodd" clip-rule="evenodd" d="M125.992 28.8062C119.452 28.8062 112.927 31.0362 107.613 35.4951C104.415 38.1788 101.943 41.4442 100.226 45.02C99.9879 44.9974 99.756 44.9457 99.5114 44.9457C95.2396 44.9457 91.8 48.3852 91.8 52.6569V62.1874C91.8 66.459 95.2396 69.8985 99.5114 69.8985C99.756 69.8985 99.9879 69.8455 100.226 69.8242C100.533 70.4612 100.851 71.0936 101.21 71.7149C102.611 74.2157 106.354 72.0746 104.909 69.5989C98.9904 59.3475 101.283 46.3572 110.35 38.7485C119.418 31.1397 132.589 31.1397 141.657 38.7485C150.725 46.3572 153.017 59.3473 147.098 69.5989L147.034 69.705L146.992 69.8112C146.992 69.8112 144.117 76.1703 138.472 76.1703L131.327 76.1064C130.657 75.1279 129.585 74.4464 128.304 74.4464H123.699C121.633 74.4464 119.972 76.1133 119.972 78.1785C119.972 79.4523 120.78 80.4196 122.63 80.4196L138.472 80.4209C146.943 80.4209 150.606 72.1052 150.773 71.7204V71.6977C151.128 71.0819 151.441 70.4495 151.746 69.818C151.995 69.8407 152.238 69.8924 152.494 69.8924C156.766 69.8924 160.205 66.4529 160.205 62.1812V52.6507C160.205 48.3791 156.766 44.9395 152.494 44.9395C152.247 44.9395 152.014 44.9803 151.774 45.0139C150.061 41.4379 147.597 38.1728 144.398 35.4889C139.084 31.03 132.532 28.8 125.991 28.8L125.992 28.8062ZM116.698 42.3544C115.038 42.246 113.522 42.597 112.197 43.9923C108.664 47.7122 106.481 52.7752 106.481 58.167C106.481 62.6145 107.967 67.5981 110.471 67.7799C114.038 68.0394 119.667 65.6969 126.003 65.6969C132.718 65.6969 138.643 68.3252 142.157 67.703C144.286 67.3266 145.532 62.2362 145.532 58.167C145.532 52.7752 143.343 47.7122 139.81 43.9923C136.277 40.2723 131.395 43.9923 126.003 43.9923C122.634 43.9923 119.465 42.536 116.698 42.3544ZM115.907 51.522C117.877 51.5228 119.473 53.1194 119.474 55.0892C119.473 57.059 117.877 58.6555 115.907 58.6563C113.937 58.6555 112.341 57.059 112.34 55.0892C112.341 53.1194 113.937 51.5228 115.907 51.522ZM136.1 51.522C138.07 51.5228 139.667 53.1194 139.667 55.0892C139.667 57.059 138.07 58.6555 136.1 58.6563C134.13 58.6555 132.534 57.059 132.533 55.0892C132.534 53.1194 134.13 51.5228 136.1 51.522Z" fill="#023E7D"/>
</g>
<defs>
<filter id="filter0_d_71_14715" x="0.599998" y="0" width="250.805" height="234.021" filterUnits="userSpaceOnUse" color-interpolation-filters="sRGB">
<feFlood flood-opacity="0" result="BackgroundImageFix"/>
<feColorMatrix in="SourceAlpha" type="matrix" values="0 0 0 0 0 0 0 0 0 0 0 0 0 0 0 0 0 0 127 0" result="hardAlpha"/>
<feOffset dy="62.4"/>
<feGaussianBlur stdDeviation="31.2"/>
<feColorMatrix type="matrix" values="0 0 0 0 0 0 0 0 0 0 0 0 0 0 0 0 0 0 0.09 0"/>
<feBlend mode="normal" in2="BackgroundImageFix" result="effect1_dropShadow_71_14715"/>
<feBlend mode="normal" in="SourceGraphic" in2="effect1_dropShadow_71_14715" result="shape"/>
</filter>
</defs>
</svg>
