<svg width="394" height="254" viewBox="0 0 394 254" fill="none" xmlns="http://www.w3.org/2000/svg">
<g filter="url(#filter0_dddd_56_3686)">
<rect x="166" y="31" width="157" height="157" rx="78.5" fill="white"/>
<path fill-rule="evenodd" clip-rule="evenodd" d="M244.483 66.4929C233.582 66.4929 222.707 70.2096 213.851 77.641C208.52 82.1139 204.4 87.5563 201.539 93.5159C201.142 93.4782 200.756 93.392 200.348 93.392C193.228 93.392 187.496 99.1245 187.496 106.244V122.128C187.496 129.248 193.228 134.98 200.348 134.98C200.756 134.98 201.142 134.892 201.539 134.856C202.051 135.918 202.581 136.972 203.179 138.007C205.514 142.175 211.753 138.607 209.344 134.481C199.48 117.395 203.3 95.7446 218.412 83.0635C233.525 70.382 255.477 70.382 270.59 83.0635C285.703 95.7446 289.523 117.395 279.659 134.481L279.552 134.658L279.481 134.835C279.481 134.835 274.691 145.433 265.283 145.433L253.374 145.327C252.258 143.696 250.47 142.56 248.336 142.56H240.66C237.218 142.56 234.449 145.338 234.449 148.78C234.449 150.903 235.796 152.515 238.879 152.515L265.283 152.517C279.4 152.517 285.506 138.658 285.784 138.017V137.979C286.376 136.952 286.897 135.898 287.406 134.846C287.821 134.884 288.225 134.97 288.652 134.97C295.772 134.97 301.504 129.237 301.504 122.118V106.234C301.504 99.1144 295.772 93.3818 288.652 93.3818C288.241 93.3818 287.853 93.4498 287.452 93.5057C284.597 87.5457 280.49 82.1039 275.159 77.6307C266.302 70.1992 255.381 66.4825 244.481 66.4825L244.483 66.4929ZM228.993 89.0732C226.226 88.8925 223.699 89.4776 221.49 91.8031C215.602 98.0028 211.964 106.441 211.964 115.428C211.964 122.84 214.441 131.146 218.614 131.449C224.559 131.881 233.941 127.977 244.501 127.977C255.692 127.977 265.567 132.358 271.424 131.321C274.973 130.694 277.048 122.21 277.048 115.428C277.048 106.441 273.401 98.0028 267.512 91.8031C261.623 85.603 253.488 91.8031 244.501 91.8031C238.885 91.8031 233.604 89.3759 228.993 89.0732ZM227.674 104.353C230.957 104.354 233.618 107.015 233.619 110.298C233.618 113.581 230.957 116.242 227.674 116.243C224.391 116.242 221.73 113.581 221.729 110.298C221.73 107.015 224.391 104.354 227.674 104.353ZM261.329 104.353C264.612 104.354 267.273 107.015 267.274 110.298C267.273 113.581 264.612 116.242 261.329 116.243C258.046 116.242 255.385 113.581 255.384 110.298C255.385 107.015 258.046 104.354 261.329 104.353Z" fill="#023E7D"/>
</g>
<defs>
<filter id="filter0_dddd_56_3686" x="0" y="0" width="489" height="770" filterUnits="userSpaceOnUse" color-interpolation-filters="sRGB">
<feFlood flood-opacity="0" result="BackgroundImageFix"/>
<feColorMatrix in="SourceAlpha" type="matrix" values="0 0 0 0 0 0 0 0 0 0 0 0 0 0 0 0 0 0 127 0" result="hardAlpha"/>
<feOffset dy="26"/>
<feGaussianBlur stdDeviation="28.5"/>
<feColorMatrix type="matrix" values="0 0 0 0 0 0 0 0 0 0 0 0 0 0 0 0 0 0 0.1 0"/>
<feBlend mode="normal" in2="BackgroundImageFix" result="effect1_dropShadow_56_3686"/>
<feColorMatrix in="SourceAlpha" type="matrix" values="0 0 0 0 0 0 0 0 0 0 0 0 0 0 0 0 0 0 127 0" result="hardAlpha"/>
<feOffset dy="104"/>
<feGaussianBlur stdDeviation="52"/>
<feColorMatrix type="matrix" values="0 0 0 0 0 0 0 0 0 0 0 0 0 0 0 0 0 0 0.09 0"/>
<feBlend mode="normal" in2="effect1_dropShadow_56_3686" result="effect2_dropShadow_56_3686"/>
<feColorMatrix in="SourceAlpha" type="matrix" values="0 0 0 0 0 0 0 0 0 0 0 0 0 0 0 0 0 0 127 0" result="hardAlpha"/>
<feOffset dy="234"/>
<feGaussianBlur stdDeviation="70"/>
<feColorMatrix type="matrix" values="0 0 0 0 0 0 0 0 0 0 0 0 0 0 0 0 0 0 0.05 0"/>
<feBlend mode="normal" in2="effect2_dropShadow_56_3686" result="effect3_dropShadow_56_3686"/>
<feColorMatrix in="SourceAlpha" type="matrix" values="0 0 0 0 0 0 0 0 0 0 0 0 0 0 0 0 0 0 127 0" result="hardAlpha"/>
<feOffset dy="416"/>
<feGaussianBlur stdDeviation="83"/>
<feColorMatrix type="matrix" values="0 0 0 0 0 0 0 0 0 0 0 0 0 0 0 0 0 0 0.01 0"/>
<feBlend mode="normal" in2="effect3_dropShadow_56_3686" result="effect4_dropShadow_56_3686"/>
<feBlend mode="normal" in="SourceGraphic" in2="effect4_dropShadow_56_3686" result="shape"/>
</filter>
</defs>
</svg>
