<svg width="996" height="171" viewBox="0 0 996 171" fill="none" xmlns="http://www.w3.org/2000/svg">
<g filter="url(#filter0_d_18_512)">
<rect x="6" y="2" width="984" height="159" rx="24" fill="#38B000"/>
<path d="M72.032 46.74C70.752 46.74 69.56 46.532 68.456 46.116C67.368 45.684 66.416 45.084 65.6 44.316C64.8 43.532 64.176 42.612 63.728 41.556C63.28 40.5 63.056 39.348 63.056 38.1C63.056 36.852 63.28 35.7 63.728 34.644C64.176 33.588 64.808 32.676 65.624 31.908C66.44 31.124 67.392 30.524 68.48 30.108C69.568 29.676 70.76 29.46 72.056 29.46C73.432 29.46 74.688 29.7 75.824 30.18C76.96 30.644 77.92 31.34 78.704 32.268L76.688 34.164C76.08 33.508 75.4 33.02 74.648 32.7C73.896 32.364 73.08 32.196 72.2 32.196C71.32 32.196 70.512 32.34 69.776 32.628C69.056 32.916 68.424 33.324 67.88 33.852C67.352 34.38 66.936 35.004 66.632 35.724C66.344 36.444 66.2 37.236 66.2 38.1C66.2 38.964 66.344 39.756 66.632 40.476C66.936 41.196 67.352 41.82 67.88 42.348C68.424 42.876 69.056 43.284 69.776 43.572C70.512 43.86 71.32 44.004 72.2 44.004C73.08 44.004 73.896 43.844 74.648 43.524C75.4 43.188 76.08 42.684 76.688 42.012L78.704 43.932C77.92 44.844 76.96 45.54 75.824 46.02C74.688 46.5 73.424 46.74 72.032 46.74ZM81.2615 46.5V28.692H84.2615V46.5H81.2615ZM88.055 46.5V33.684H91.055V46.5H88.055ZM89.567 31.572C89.007 31.572 88.543 31.396 88.175 31.044C87.823 30.692 87.647 30.268 87.647 29.772C87.647 29.26 87.823 28.836 88.175 28.5C88.543 28.148 89.007 27.972 89.567 27.972C90.127 27.972 90.583 28.14 90.935 28.476C91.303 28.796 91.487 29.204 91.487 29.7C91.487 30.228 91.311 30.676 90.959 31.044C90.607 31.396 90.143 31.572 89.567 31.572ZM100.873 46.668C99.4485 46.668 98.2005 46.388 97.1285 45.828C96.0725 45.252 95.2485 44.468 94.6565 43.476C94.0805 42.484 93.7925 41.356 93.7925 40.092C93.7925 38.812 94.0725 37.684 94.6325 36.708C95.2085 35.716 95.9925 34.94 96.9845 34.38C97.9925 33.82 99.1365 33.54 100.417 33.54C101.665 33.54 102.777 33.812 103.753 34.356C104.729 34.9 105.497 35.668 106.057 36.66C106.617 37.652 106.897 38.82 106.897 40.164C106.897 40.292 106.889 40.436 106.873 40.596C106.873 40.756 106.865 40.908 106.849 41.052H96.1685V39.06H105.265L104.089 39.684C104.105 38.948 103.953 38.3 103.633 37.74C103.313 37.18 102.873 36.74 102.313 36.42C101.769 36.1 101.137 35.94 100.417 35.94C99.6805 35.94 99.0325 36.1 98.4725 36.42C97.9285 36.74 97.4965 37.188 97.1765 37.764C96.8725 38.324 96.7205 38.988 96.7205 39.756V40.236C96.7205 41.004 96.8965 41.684 97.2485 42.276C97.6005 42.868 98.0965 43.324 98.7365 43.644C99.3765 43.964 100.113 44.124 100.945 44.124C101.665 44.124 102.313 44.012 102.889 43.788C103.465 43.564 103.977 43.212 104.425 42.732L106.033 44.58C105.457 45.252 104.729 45.772 103.849 46.14C102.985 46.492 101.993 46.668 100.873 46.668ZM116.906 33.54C117.93 33.54 118.842 33.74 119.642 34.14C120.458 34.54 121.098 35.156 121.562 35.988C122.026 36.804 122.258 37.86 122.258 39.156V46.5H119.258V39.54C119.258 38.404 118.986 37.556 118.442 36.996C117.914 36.436 117.17 36.156 116.21 36.156C115.506 36.156 114.882 36.3 114.338 36.588C113.794 36.876 113.37 37.308 113.066 37.884C112.778 38.444 112.634 39.156 112.634 40.02V46.5H109.634V33.684H112.49V37.14L111.986 36.084C112.434 35.268 113.082 34.644 113.93 34.212C114.794 33.764 115.786 33.54 116.906 33.54ZM130.744 46.668C129.336 46.668 128.248 46.308 127.48 45.588C126.712 44.852 126.328 43.772 126.328 42.348V30.852H129.328V42.276C129.328 42.884 129.48 43.356 129.784 43.692C130.104 44.028 130.544 44.196 131.104 44.196C131.776 44.196 132.336 44.02 132.784 43.668L133.624 45.804C133.272 46.092 132.84 46.308 132.328 46.452C131.816 46.596 131.288 46.668 130.744 46.668ZM124.216 36.18V33.78H132.76V36.18H124.216ZM139.908 46.668C138.836 46.668 137.804 46.532 136.812 46.26C135.836 45.972 135.06 45.628 134.484 45.228L135.636 42.948C136.212 43.316 136.9 43.62 137.7 43.86C138.5 44.1 139.3 44.22 140.1 44.22C141.044 44.22 141.724 44.092 142.14 43.836C142.572 43.58 142.788 43.236 142.788 42.804C142.788 42.452 142.644 42.188 142.356 42.012C142.068 41.82 141.692 41.676 141.228 41.58C140.764 41.484 140.244 41.396 139.668 41.316C139.108 41.236 138.54 41.132 137.964 41.004C137.404 40.86 136.892 40.66 136.428 40.404C135.964 40.132 135.588 39.772 135.3 39.324C135.012 38.876 134.868 38.284 134.868 37.548C134.868 36.732 135.1 36.028 135.564 35.436C136.028 34.828 136.676 34.364 137.508 34.044C138.356 33.708 139.356 33.54 140.508 33.54C141.372 33.54 142.244 33.636 143.124 33.828C144.004 34.02 144.732 34.292 145.308 34.644L144.156 36.924C143.548 36.556 142.932 36.308 142.308 36.18C141.7 36.036 141.092 35.964 140.484 35.964C139.572 35.964 138.892 36.1 138.444 36.372C138.012 36.644 137.796 36.988 137.796 37.404C137.796 37.788 137.94 38.076 138.228 38.268C138.516 38.46 138.892 38.612 139.356 38.724C139.82 38.836 140.332 38.932 140.892 39.012C141.468 39.076 142.036 39.18 142.596 39.324C143.156 39.468 143.668 39.668 144.132 39.924C144.612 40.164 144.996 40.508 145.284 40.956C145.572 41.404 145.716 41.988 145.716 42.708C145.716 43.508 145.476 44.204 144.996 44.796C144.532 45.388 143.868 45.852 143.004 46.188C142.14 46.508 141.108 46.668 139.908 46.668Z" fill="white"/>
<path d="M75.248 123.98C72.88 123.98 70.56 123.644 68.288 122.972C66.048 122.268 64.16 121.308 62.624 120.092L65.264 115.244C66.48 116.236 67.952 117.036 69.68 117.644C71.44 118.252 73.264 118.556 75.152 118.556C77.36 118.556 79.088 118.092 80.336 117.164C81.616 116.236 82.256 114.988 82.256 113.42C82.256 112.364 81.984 111.436 81.44 110.636C80.928 109.836 80 109.228 78.656 108.812C77.344 108.396 75.536 108.188 73.232 108.188H65.12L66.848 89.9H86.576V95.132H69.152L72.416 92.156L71.12 105.836L67.856 102.908H74.624C77.952 102.908 80.624 103.356 82.64 104.252C84.688 105.116 86.176 106.332 87.104 107.9C88.064 109.436 88.544 111.196 88.544 113.18C88.544 115.132 88.064 116.924 87.104 118.556C86.144 120.188 84.672 121.5 82.688 122.492C80.736 123.484 78.256 123.98 75.248 123.98ZM95.3113 123.836C94.2233 123.836 93.2953 123.468 92.5272 122.732C91.7592 121.964 91.3752 121.004 91.3752 119.852C91.3752 118.636 91.7592 117.676 92.5272 116.972C93.2953 116.236 94.2233 115.868 95.3113 115.868C96.3993 115.868 97.3273 116.236 98.0953 116.972C98.8633 117.676 99.2473 118.636 99.2473 119.852C99.2473 121.004 98.8633 121.964 98.0953 122.732C97.3273 123.468 96.3993 123.836 95.3113 123.836ZM113.846 123.98C111.478 123.98 109.158 123.644 106.886 122.972C104.646 122.268 102.758 121.308 101.222 120.092L103.862 115.244C105.078 116.236 106.55 117.036 108.278 117.644C110.038 118.252 111.862 118.556 113.75 118.556C115.958 118.556 117.686 118.092 118.934 117.164C120.214 116.236 120.854 114.988 120.854 113.42C120.854 112.364 120.582 111.436 120.038 110.636C119.526 109.836 118.598 109.228 117.254 108.812C115.942 108.396 114.134 108.188 111.83 108.188H103.718L105.446 89.9H125.174V95.132H107.75L111.014 92.156L109.718 105.836L106.454 102.908H113.222C116.55 102.908 119.222 103.356 121.238 104.252C123.286 105.116 124.774 106.332 125.702 107.9C126.662 109.436 127.142 111.196 127.142 113.18C127.142 115.132 126.662 116.924 125.702 118.556C124.742 120.188 123.27 121.5 121.286 122.492C119.334 123.484 116.854 123.98 113.846 123.98ZM145.255 123.5V89.9H150.391L165.079 114.428H162.391L176.839 89.9H181.975L182.023 123.5H176.119L176.071 99.164H177.319L165.031 119.66H162.247L149.767 99.164H151.207V123.5H145.255Z" fill="white"/>
<line x1="326.5" y1="39" x2="326.5" y2="124" stroke="#F8FAFC"/>
<path d="M413.464 46.74C412.152 46.74 410.896 46.556 409.696 46.188C408.496 45.804 407.544 45.316 406.84 44.724L407.92 42.3C408.592 42.828 409.424 43.268 410.416 43.62C411.408 43.972 412.424 44.148 413.464 44.148C414.344 44.148 415.056 44.052 415.6 43.86C416.144 43.668 416.544 43.412 416.8 43.092C417.056 42.756 417.184 42.38 417.184 41.964C417.184 41.452 417 41.044 416.632 40.74C416.264 40.42 415.784 40.172 415.192 39.996C414.616 39.804 413.968 39.628 413.248 39.468C412.544 39.308 411.832 39.124 411.112 38.916C410.408 38.692 409.76 38.412 409.168 38.076C408.592 37.724 408.12 37.26 407.752 36.684C407.384 36.108 407.2 35.372 407.2 34.476C407.2 33.564 407.44 32.732 407.92 31.98C408.416 31.212 409.16 30.604 410.152 30.156C411.16 29.692 412.432 29.46 413.968 29.46C414.976 29.46 415.976 29.588 416.968 29.844C417.96 30.1 418.824 30.468 419.56 30.948L418.576 33.372C417.824 32.924 417.048 32.596 416.248 32.388C415.448 32.164 414.68 32.052 413.944 32.052C413.08 32.052 412.376 32.156 411.832 32.364C411.304 32.572 410.912 32.844 410.656 33.18C410.416 33.516 410.296 33.9 410.296 34.332C410.296 34.844 410.472 35.26 410.824 35.58C411.192 35.884 411.664 36.124 412.24 36.3C412.832 36.476 413.488 36.652 414.208 36.828C414.928 36.988 415.64 37.172 416.344 37.38C417.064 37.588 417.712 37.86 418.288 38.196C418.88 38.532 419.352 38.988 419.704 39.564C420.072 40.14 420.256 40.868 420.256 41.748C420.256 42.644 420.008 43.476 419.512 44.244C419.032 44.996 418.288 45.604 417.28 46.068C416.272 46.516 415 46.74 413.464 46.74ZM428.942 46.668C427.518 46.668 426.27 46.388 425.198 45.828C424.142 45.252 423.318 44.468 422.726 43.476C422.15 42.484 421.862 41.356 421.862 40.092C421.862 38.812 422.142 37.684 422.702 36.708C423.278 35.716 424.062 34.94 425.054 34.38C426.062 33.82 427.206 33.54 428.486 33.54C429.734 33.54 430.846 33.812 431.822 34.356C432.798 34.9 433.566 35.668 434.126 36.66C434.686 37.652 434.966 38.82 434.966 40.164C434.966 40.292 434.958 40.436 434.942 40.596C434.942 40.756 434.934 40.908 434.918 41.052H424.238V39.06H433.334L432.158 39.684C432.174 38.948 432.022 38.3 431.702 37.74C431.382 37.18 430.942 36.74 430.382 36.42C429.838 36.1 429.206 35.94 428.486 35.94C427.75 35.94 427.102 36.1 426.542 36.42C425.998 36.74 425.566 37.188 425.246 37.764C424.942 38.324 424.79 38.988 424.79 39.756V40.236C424.79 41.004 424.966 41.684 425.318 42.276C425.67 42.868 426.166 43.324 426.806 43.644C427.446 43.964 428.182 44.124 429.014 44.124C429.734 44.124 430.382 44.012 430.958 43.788C431.534 43.564 432.046 43.212 432.494 42.732L434.102 44.58C433.526 45.252 432.798 45.772 431.918 46.14C431.054 46.492 430.062 46.668 428.942 46.668ZM437.703 46.5V33.684H440.559V37.212L440.223 36.18C440.607 35.316 441.207 34.66 442.023 34.212C442.855 33.764 443.887 33.54 445.119 33.54V36.396C444.991 36.364 444.871 36.348 444.759 36.348C444.647 36.332 444.535 36.324 444.423 36.324C443.287 36.324 442.383 36.66 441.711 37.332C441.039 37.988 440.703 38.972 440.703 40.284V46.5H437.703ZM451.397 46.5L445.901 33.684H449.021L453.749 44.988H452.213L457.109 33.684H459.989L454.493 46.5H451.397ZM461.72 46.5V33.684H464.72V46.5H461.72ZM463.232 31.572C462.672 31.572 462.208 31.396 461.84 31.044C461.488 30.692 461.312 30.268 461.312 29.772C461.312 29.26 461.488 28.836 461.84 28.5C462.208 28.148 462.672 27.972 463.232 27.972C463.792 27.972 464.248 28.14 464.6 28.476C464.968 28.796 465.152 29.204 465.152 29.7C465.152 30.228 464.976 30.676 464.624 31.044C464.272 31.396 463.808 31.572 463.232 31.572ZM474.394 46.668C473.05 46.668 471.85 46.388 470.794 45.828C469.754 45.252 468.938 44.468 468.346 43.476C467.754 42.484 467.458 41.356 467.458 40.092C467.458 38.812 467.754 37.684 468.346 36.708C468.938 35.716 469.754 34.94 470.794 34.38C471.85 33.82 473.05 33.54 474.394 33.54C475.642 33.54 476.738 33.796 477.682 34.308C478.642 34.804 479.37 35.54 479.866 36.516L477.562 37.86C477.178 37.252 476.706 36.804 476.146 36.516C475.602 36.228 475.01 36.084 474.37 36.084C473.634 36.084 472.97 36.244 472.378 36.564C471.786 36.884 471.322 37.348 470.986 37.956C470.65 38.548 470.482 39.26 470.482 40.092C470.482 40.924 470.65 41.644 470.986 42.252C471.322 42.844 471.786 43.3 472.378 43.62C472.97 43.94 473.634 44.1 474.37 44.1C475.01 44.1 475.602 43.956 476.146 43.668C476.706 43.38 477.178 42.932 477.562 42.324L479.866 43.668C479.37 44.628 478.642 45.372 477.682 45.9C476.738 46.412 475.642 46.668 474.394 46.668ZM488.151 46.668C486.727 46.668 485.479 46.388 484.407 45.828C483.351 45.252 482.527 44.468 481.935 43.476C481.359 42.484 481.071 41.356 481.071 40.092C481.071 38.812 481.351 37.684 481.911 36.708C482.487 35.716 483.271 34.94 484.263 34.38C485.271 33.82 486.415 33.54 487.695 33.54C488.943 33.54 490.055 33.812 491.031 34.356C492.007 34.9 492.775 35.668 493.335 36.66C493.895 37.652 494.175 38.82 494.175 40.164C494.175 40.292 494.167 40.436 494.151 40.596C494.151 40.756 494.143 40.908 494.127 41.052H483.447V39.06H492.543L491.367 39.684C491.383 38.948 491.231 38.3 490.911 37.74C490.591 37.18 490.151 36.74 489.591 36.42C489.047 36.1 488.415 35.94 487.695 35.94C486.959 35.94 486.311 36.1 485.751 36.42C485.207 36.74 484.775 37.188 484.455 37.764C484.151 38.324 483.999 38.988 483.999 39.756V40.236C483.999 41.004 484.175 41.684 484.527 42.276C484.879 42.868 485.375 43.324 486.015 43.644C486.655 43.964 487.391 44.124 488.223 44.124C488.943 44.124 489.591 44.012 490.167 43.788C490.743 43.564 491.255 43.212 491.703 42.732L493.311 44.58C492.735 45.252 492.007 45.772 491.127 46.14C490.263 46.492 489.271 46.668 488.151 46.668ZM500.873 46.668C499.801 46.668 498.769 46.532 497.777 46.26C496.801 45.972 496.025 45.628 495.449 45.228L496.601 42.948C497.177 43.316 497.865 43.62 498.665 43.86C499.465 44.1 500.265 44.22 501.065 44.22C502.009 44.22 502.689 44.092 503.105 43.836C503.537 43.58 503.753 43.236 503.753 42.804C503.753 42.452 503.609 42.188 503.321 42.012C503.033 41.82 502.657 41.676 502.193 41.58C501.729 41.484 501.209 41.396 500.633 41.316C500.073 41.236 499.505 41.132 498.929 41.004C498.369 40.86 497.857 40.66 497.393 40.404C496.929 40.132 496.553 39.772 496.265 39.324C495.977 38.876 495.833 38.284 495.833 37.548C495.833 36.732 496.065 36.028 496.529 35.436C496.993 34.828 497.641 34.364 498.473 34.044C499.321 33.708 500.321 33.54 501.473 33.54C502.337 33.54 503.209 33.636 504.089 33.828C504.969 34.02 505.697 34.292 506.273 34.644L505.121 36.924C504.513 36.556 503.897 36.308 503.273 36.18C502.665 36.036 502.057 35.964 501.449 35.964C500.537 35.964 499.857 36.1 499.409 36.372C498.977 36.644 498.761 36.988 498.761 37.404C498.761 37.788 498.905 38.076 499.193 38.268C499.481 38.46 499.857 38.612 500.321 38.724C500.785 38.836 501.297 38.932 501.857 39.012C502.433 39.076 503.001 39.18 503.561 39.324C504.121 39.468 504.633 39.668 505.097 39.924C505.577 40.164 505.961 40.508 506.249 40.956C506.537 41.404 506.681 41.988 506.681 42.708C506.681 43.508 506.441 44.204 505.961 44.796C505.497 45.388 504.833 45.852 503.969 46.188C503.105 46.508 502.073 46.668 500.873 46.668Z" fill="white"/>
<path d="M417.616 117.5V95.9H422.752V117.5H417.616ZM409.12 109.1V104.3H431.248V109.1H409.12ZM440.287 123.5V92.3L443.023 95.132H433.183V89.9H446.527V123.5H440.287ZM466.632 123.98C463.976 123.98 461.576 123.308 459.432 121.964C457.32 120.62 455.656 118.668 454.44 116.108C453.224 113.516 452.616 110.38 452.616 106.7C452.616 103.02 453.224 99.9 454.44 97.34C455.656 94.748 457.32 92.78 459.432 91.436C461.576 90.092 463.976 89.42 466.632 89.42C469.32 89.42 471.72 90.092 473.832 91.436C475.944 92.78 477.608 94.748 478.824 97.34C480.072 99.9 480.696 103.02 480.696 106.7C480.696 110.38 480.072 113.516 478.824 116.108C477.608 118.668 475.944 120.62 473.832 121.964C471.72 123.308 469.32 123.98 466.632 123.98ZM466.632 118.556C468.2 118.556 469.56 118.14 470.712 117.308C471.864 116.444 472.76 115.132 473.4 113.372C474.072 111.612 474.408 109.388 474.408 106.7C474.408 103.98 474.072 101.756 473.4 100.028C472.76 98.268 471.864 96.972 470.712 96.14C469.56 95.276 468.2 94.844 466.632 94.844C465.128 94.844 463.784 95.276 462.6 96.14C461.448 96.972 460.536 98.268 459.864 100.028C459.224 101.756 458.904 103.98 458.904 106.7C458.904 109.388 459.224 111.612 459.864 113.372C460.536 115.132 461.448 116.444 462.6 117.308C463.784 118.14 465.128 118.556 466.632 118.556Z" fill="white"/>
<line x1="670.5" y1="39" x2="670.5" y2="124" stroke="#F8FAFC"/>
<path d="M752.256 46.5V29.7H759.168C760.656 29.7 761.928 29.94 762.984 30.42C764.056 30.9 764.88 31.588 765.456 32.484C766.032 33.38 766.32 34.444 766.32 35.676C766.32 36.908 766.032 37.972 765.456 38.868C764.88 39.764 764.056 40.452 762.984 40.932C761.928 41.412 760.656 41.652 759.168 41.652H753.984L755.376 40.188V46.5H752.256ZM755.376 40.524L753.984 39.012H759.024C760.4 39.012 761.432 38.724 762.12 38.148C762.824 37.556 763.176 36.732 763.176 35.676C763.176 34.604 762.824 33.78 762.12 33.204C761.432 32.628 760.4 32.34 759.024 32.34H753.984L755.376 30.804V40.524ZM768.887 46.5V33.684H771.743V37.212L771.407 36.18C771.791 35.316 772.391 34.66 773.207 34.212C774.039 33.764 775.071 33.54 776.303 33.54V36.396C776.175 36.364 776.055 36.348 775.943 36.348C775.831 36.332 775.719 36.324 775.607 36.324C774.471 36.324 773.567 36.66 772.895 37.332C772.223 37.988 771.887 38.972 771.887 40.284V46.5H768.887ZM784.346 46.668C783.034 46.668 781.866 46.388 780.842 45.828C779.818 45.252 779.01 44.468 778.418 43.476C777.826 42.484 777.53 41.356 777.53 40.092C777.53 38.812 777.826 37.684 778.418 36.708C779.01 35.716 779.818 34.94 780.842 34.38C781.866 33.82 783.034 33.54 784.346 33.54C785.674 33.54 786.85 33.82 787.874 34.38C788.914 34.94 789.722 35.708 790.298 36.684C790.89 37.66 791.186 38.796 791.186 40.092C791.186 41.356 790.89 42.484 790.298 43.476C789.722 44.468 788.914 45.252 787.874 45.828C786.85 46.388 785.674 46.668 784.346 46.668ZM784.346 44.1C785.082 44.1 785.738 43.94 786.314 43.62C786.89 43.3 787.338 42.836 787.658 42.228C787.994 41.62 788.162 40.908 788.162 40.092C788.162 39.26 787.994 38.548 787.658 37.956C787.338 37.348 786.89 36.884 786.314 36.564C785.738 36.244 785.09 36.084 784.37 36.084C783.634 36.084 782.978 36.244 782.402 36.564C781.842 36.884 781.394 37.348 781.058 37.956C780.722 38.548 780.554 39.26 780.554 40.092C780.554 40.908 780.722 41.62 781.058 42.228C781.394 42.836 781.842 43.3 782.402 43.62C782.978 43.94 783.626 44.1 784.346 44.1ZM799.335 46.668C798.103 46.668 796.991 46.396 795.999 45.852C795.023 45.292 794.255 44.524 793.695 43.548C793.135 42.572 792.855 41.42 792.855 40.092C792.855 38.764 793.135 37.612 793.695 36.636C794.255 35.66 795.023 34.9 795.999 34.356C796.991 33.812 798.103 33.54 799.335 33.54C800.407 33.54 801.367 33.78 802.215 34.26C803.063 34.724 803.735 35.436 804.231 36.396C804.727 37.356 804.975 38.588 804.975 40.092C804.975 41.58 804.735 42.812 804.255 43.788C803.775 44.748 803.111 45.468 802.263 45.948C801.415 46.428 800.439 46.668 799.335 46.668ZM799.695 44.1C800.415 44.1 801.055 43.94 801.615 43.62C802.191 43.3 802.647 42.836 802.983 42.228C803.335 41.62 803.511 40.908 803.511 40.092C803.511 39.26 803.335 38.548 802.983 37.956C802.647 37.348 802.191 36.884 801.615 36.564C801.055 36.244 800.415 36.084 799.695 36.084C798.975 36.084 798.327 36.244 797.751 36.564C797.191 36.884 796.735 37.348 796.383 37.956C796.047 38.548 795.879 39.26 795.879 40.092C795.879 40.908 796.047 41.62 796.383 42.228C796.735 42.836 797.191 43.3 797.751 43.62C798.327 43.94 798.975 44.1 799.695 44.1ZM803.583 46.5V43.476L803.703 40.068L803.463 36.66V28.692H806.439V46.5H803.583ZM815.668 46.668C814.58 46.668 813.62 46.468 812.788 46.068C811.956 45.652 811.308 45.028 810.844 44.196C810.38 43.348 810.148 42.284 810.148 41.004V33.684H813.148V40.596C813.148 41.748 813.404 42.612 813.916 43.188C814.444 43.748 815.188 44.028 816.148 44.028C816.852 44.028 817.46 43.884 817.972 43.596C818.5 43.308 818.908 42.876 819.196 42.3C819.5 41.724 819.652 41.012 819.652 40.164V33.684H822.652V46.5H819.796V43.044L820.3 44.1C819.868 44.932 819.236 45.572 818.404 46.02C817.572 46.452 816.66 46.668 815.668 46.668ZM832.315 46.668C830.971 46.668 829.771 46.388 828.715 45.828C827.675 45.252 826.859 44.468 826.267 43.476C825.675 42.484 825.379 41.356 825.379 40.092C825.379 38.812 825.675 37.684 826.267 36.708C826.859 35.716 827.675 34.94 828.715 34.38C829.771 33.82 830.971 33.54 832.315 33.54C833.563 33.54 834.659 33.796 835.603 34.308C836.563 34.804 837.291 35.54 837.787 36.516L835.483 37.86C835.099 37.252 834.627 36.804 834.067 36.516C833.523 36.228 832.931 36.084 832.291 36.084C831.555 36.084 830.891 36.244 830.299 36.564C829.707 36.884 829.243 37.348 828.907 37.956C828.571 38.548 828.403 39.26 828.403 40.092C828.403 40.924 828.571 41.644 828.907 42.252C829.243 42.844 829.707 43.3 830.299 43.62C830.891 43.94 831.555 44.1 832.291 44.1C832.931 44.1 833.523 43.956 834.067 43.668C834.627 43.38 835.099 42.932 835.483 42.324L837.787 43.668C837.291 44.628 836.563 45.372 835.603 45.9C834.659 46.412 833.563 46.668 832.315 46.668ZM845.225 46.668C843.817 46.668 842.729 46.308 841.961 45.588C841.193 44.852 840.809 43.772 840.809 42.348V30.852H843.809V42.276C843.809 42.884 843.961 43.356 844.265 43.692C844.585 44.028 845.025 44.196 845.585 44.196C846.257 44.196 846.817 44.02 847.265 43.668L848.105 45.804C847.753 46.092 847.321 46.308 846.809 46.452C846.297 46.596 845.769 46.668 845.225 46.668ZM838.697 36.18V33.78H847.241V36.18H838.697ZM854.389 46.668C853.317 46.668 852.285 46.532 851.293 46.26C850.317 45.972 849.541 45.628 848.965 45.228L850.117 42.948C850.693 43.316 851.381 43.62 852.181 43.86C852.981 44.1 853.781 44.22 854.581 44.22C855.525 44.22 856.205 44.092 856.621 43.836C857.053 43.58 857.269 43.236 857.269 42.804C857.269 42.452 857.125 42.188 856.837 42.012C856.549 41.82 856.173 41.676 855.709 41.58C855.245 41.484 854.725 41.396 854.149 41.316C853.589 41.236 853.021 41.132 852.445 41.004C851.885 40.86 851.373 40.66 850.909 40.404C850.445 40.132 850.069 39.772 849.781 39.324C849.493 38.876 849.349 38.284 849.349 37.548C849.349 36.732 849.581 36.028 850.045 35.436C850.509 34.828 851.157 34.364 851.989 34.044C852.837 33.708 853.837 33.54 854.989 33.54C855.853 33.54 856.725 33.636 857.605 33.828C858.485 34.02 859.213 34.292 859.789 34.644L858.637 36.924C858.029 36.556 857.413 36.308 856.789 36.18C856.181 36.036 855.573 35.964 854.965 35.964C854.053 35.964 853.373 36.1 852.925 36.372C852.493 36.644 852.277 36.988 852.277 37.404C852.277 37.788 852.421 38.076 852.709 38.268C852.997 38.46 853.373 38.612 853.837 38.724C854.301 38.836 854.813 38.932 855.373 39.012C855.949 39.076 856.517 39.18 857.077 39.324C857.637 39.468 858.149 39.668 858.613 39.924C859.093 40.164 859.477 40.508 859.765 40.956C860.053 41.404 860.197 41.988 860.197 42.708C860.197 43.508 859.957 44.204 859.477 44.796C859.013 45.388 858.349 45.852 857.485 46.188C856.621 46.508 855.589 46.668 854.389 46.668Z" fill="white"/>
<path d="M761.616 117.5V95.9H766.752V117.5H761.616ZM753.12 109.1V104.3H775.248V109.1H753.12ZM784.287 123.5V92.3L787.023 95.132H777.183V89.9H790.527V123.5H784.287ZM810.632 123.98C807.976 123.98 805.576 123.308 803.432 121.964C801.32 120.62 799.656 118.668 798.44 116.108C797.224 113.516 796.616 110.38 796.616 106.7C796.616 103.02 797.224 99.9 798.44 97.34C799.656 94.748 801.32 92.78 803.432 91.436C805.576 90.092 807.976 89.42 810.632 89.42C813.32 89.42 815.72 90.092 817.832 91.436C819.944 92.78 821.608 94.748 822.824 97.34C824.072 99.9 824.696 103.02 824.696 106.7C824.696 110.38 824.072 113.516 822.824 116.108C821.608 118.668 819.944 120.62 817.832 121.964C815.72 123.308 813.32 123.98 810.632 123.98ZM810.632 118.556C812.2 118.556 813.56 118.14 814.712 117.308C815.864 116.444 816.76 115.132 817.4 113.372C818.072 111.612 818.408 109.388 818.408 106.7C818.408 103.98 818.072 101.756 817.4 100.028C816.76 98.268 815.864 96.972 814.712 96.14C813.56 95.276 812.2 94.844 810.632 94.844C809.128 94.844 807.784 95.276 806.6 96.14C805.448 96.972 804.536 98.268 803.864 100.028C803.224 101.756 802.904 103.98 802.904 106.7C802.904 109.388 803.224 111.612 803.864 113.372C804.536 115.132 805.448 116.444 806.6 117.308C807.784 118.14 809.128 118.556 810.632 118.556Z" fill="white"/>
</g>
<defs>
<filter id="filter0_d_18_512" x="0" y="0" width="996" height="171" filterUnits="userSpaceOnUse" color-interpolation-filters="sRGB">
<feFlood flood-opacity="0" result="BackgroundImageFix"/>
<feColorMatrix in="SourceAlpha" type="matrix" values="0 0 0 0 0 0 0 0 0 0 0 0 0 0 0 0 0 0 127 0" result="hardAlpha"/>
<feOffset dy="4"/>
<feGaussianBlur stdDeviation="3"/>
<feComposite in2="hardAlpha" operator="out"/>
<feColorMatrix type="matrix" values="0 0 0 0 0 0 0 0 0 0 0 0 0 0 0 0 0 0 0.09 0"/>
<feBlend mode="normal" in2="BackgroundImageFix" result="effect1_dropShadow_18_512"/>
<feBlend mode="normal" in="SourceGraphic" in2="effect1_dropShadow_18_512" result="shape"/>
</filter>
</defs>
</svg>
