<svg width="24" height="25" viewBox="0 0 24 25" fill="none" xmlns="http://www.w3.org/2000/svg">
<path d="M8.85 19.6667H6C5.44772 19.6667 5 19.2189 5 18.6667V12.6667C5 12.1144 5.44772 11.6667 6 11.6667H8.85C8.93284 11.6667 9 11.7338 9 11.8167V19.5167C9 19.5995 8.93284 19.6667 8.85 19.6667Z" stroke="#33363F" stroke-width="2" stroke-linecap="round"/>
<path d="M9 11.6667L10.8321 8.91858C10.9416 8.75431 11 8.56131 11 8.36388V5.66666C11 5.11437 11.4477 4.66666 12 4.66666H13C14.1046 4.66666 15 5.56209 15 6.66666V11.6667" stroke="#33363F" stroke-width="2" stroke-linecap="round"/>
<path d="M13 11.6667H17.7655C18.9575 11.6667 19.8849 12.7028 19.7532 13.8875L19.1977 18.8875C19.0851 19.9004 18.229 20.6667 17.2099 20.6667H13.4142C13.149 20.6667 12.8946 20.5613 12.7071 20.3738L12.2929 19.9595C12.1054 19.772 11.851 19.6667 11.5858 19.6667H9" stroke="#33363F" stroke-width="2" stroke-linecap="round"/>
</svg>
