<svg width="106" height="41" viewBox="0 0 106 41" fill="none" xmlns="http://www.w3.org/2000/svg">
<rect x="0.5" y="1" width="105" height="39" rx="19.5" stroke="#94A3B8"/>
<path d="M21.894 25.612C21.1473 25.612 20.452 25.486 19.808 25.234C19.1733 24.982 18.6227 24.632 18.156 24.184C17.6893 23.7267 17.3253 23.1947 17.064 22.588C16.8027 21.9813 16.672 21.3187 16.672 20.6C16.672 19.8813 16.8027 19.2187 17.064 18.612C17.3253 18.0053 17.6893 17.478 18.156 17.03C18.6227 16.5727 19.1733 16.218 19.808 15.966C20.4427 15.714 21.138 15.588 21.894 15.588C22.6407 15.588 23.3267 15.714 23.952 15.966C24.5867 16.2087 25.1373 16.5587 25.604 17.016C26.08 17.464 26.444 17.9913 26.696 18.598C26.9573 19.2047 27.088 19.872 27.088 20.6C27.088 21.328 26.9573 21.9953 26.696 22.602C26.444 23.2087 26.08 23.7407 25.604 24.198C25.1373 24.646 24.5867 24.996 23.952 25.248C23.3267 25.4907 22.6407 25.612 21.894 25.612ZM21.894 24.366C22.4353 24.366 22.9347 24.2727 23.392 24.086C23.8587 23.8993 24.26 23.638 24.596 23.302C24.9413 22.9567 25.2073 22.5553 25.394 22.098C25.59 21.6407 25.688 21.1413 25.688 20.6C25.688 20.0587 25.59 19.5593 25.394 19.102C25.2073 18.6447 24.9413 18.248 24.596 17.912C24.26 17.5667 23.8587 17.3007 23.392 17.114C22.9347 16.9273 22.4353 16.834 21.894 16.834C21.3433 16.834 20.8347 16.9273 20.368 17.114C19.9107 17.3007 19.5093 17.5667 19.164 17.912C18.8187 18.248 18.548 18.6447 18.352 19.102C18.1653 19.5593 18.072 20.0587 18.072 20.6C18.072 21.1413 18.1653 21.6407 18.352 22.098C18.548 22.5553 18.8187 22.9567 19.164 23.302C19.5093 23.638 19.9107 23.8993 20.368 24.086C20.8347 24.2727 21.3433 24.366 21.894 24.366ZM32.9658 25.584C32.3498 25.584 31.7851 25.444 31.2718 25.164C30.7678 24.8747 30.3618 24.45 30.0538 23.89C29.7551 23.33 29.6058 22.63 29.6058 21.79C29.6058 20.95 29.7505 20.25 30.0398 19.69C30.3385 19.13 30.7398 18.71 31.2438 18.43C31.7571 18.15 32.3311 18.01 32.9658 18.01C33.6938 18.01 34.3378 18.1687 34.8978 18.486C35.4578 18.8033 35.9011 19.2467 36.2278 19.816C36.5545 20.376 36.7178 21.034 36.7178 21.79C36.7178 22.546 36.5545 23.2087 36.2278 23.778C35.9011 24.3473 35.4578 24.7907 34.8978 25.108C34.3378 25.4253 33.6938 25.584 32.9658 25.584ZM29.0318 28.216V18.08H30.3198V20.082L30.2358 21.804L30.3758 23.526V28.216H29.0318ZM32.8538 24.408C33.3298 24.408 33.7545 24.3007 34.1278 24.086C34.5105 23.8713 34.8091 23.568 35.0238 23.176C35.2478 22.7747 35.3598 22.3127 35.3598 21.79C35.3598 21.258 35.2478 20.8007 35.0238 20.418C34.8091 20.026 34.5105 19.7227 34.1278 19.508C33.7545 19.2933 33.3298 19.186 32.8538 19.186C32.3871 19.186 31.9625 19.2933 31.5798 19.508C31.2065 19.7227 30.9078 20.026 30.6838 20.418C30.4691 20.8007 30.3618 21.258 30.3618 21.79C30.3618 22.3127 30.4691 22.7747 30.6838 23.176C30.9078 23.568 31.2065 23.8713 31.5798 24.086C31.9625 24.3007 32.3871 24.408 32.8538 24.408ZM41.8788 25.584C41.0854 25.584 40.3854 25.4207 39.7788 25.094C39.1814 24.7673 38.7148 24.3193 38.3788 23.75C38.0521 23.1807 37.8888 22.5273 37.8888 21.79C37.8888 21.0527 38.0474 20.3993 38.3648 19.83C38.6914 19.2607 39.1348 18.8173 39.6948 18.5C40.2641 18.1733 40.9034 18.01 41.6128 18.01C42.3314 18.01 42.9661 18.1687 43.5168 18.486C44.0674 18.8033 44.4968 19.2513 44.8048 19.83C45.1221 20.3993 45.2808 21.0667 45.2808 21.832C45.2808 21.888 45.2761 21.9533 45.2668 22.028C45.2668 22.1027 45.2621 22.1727 45.2528 22.238H38.9388V21.272H44.5528L44.0068 21.608C44.0161 21.132 43.9181 20.7073 43.7128 20.334C43.5074 19.9607 43.2228 19.6713 42.8588 19.466C42.5041 19.2513 42.0888 19.144 41.6128 19.144C41.1461 19.144 40.7308 19.2513 40.3668 19.466C40.0028 19.6713 39.7181 19.9653 39.5128 20.348C39.3074 20.7213 39.2048 21.1507 39.2048 21.636V21.86C39.2048 22.3547 39.3168 22.798 39.5408 23.19C39.7741 23.5727 40.0961 23.8713 40.5068 24.086C40.9174 24.3007 41.3888 24.408 41.9208 24.408C42.3594 24.408 42.7561 24.3333 43.1108 24.184C43.4748 24.0347 43.7921 23.8107 44.0628 23.512L44.8048 24.38C44.4688 24.772 44.0488 25.0707 43.5448 25.276C43.0501 25.4813 42.4948 25.584 41.8788 25.584ZM51.109 18.01C51.7157 18.01 52.2477 18.1267 52.705 18.36C53.1717 18.5933 53.5357 18.948 53.797 19.424C54.0584 19.9 54.189 20.502 54.189 21.23V25.5H52.845V21.384C52.845 20.6653 52.6677 20.124 52.313 19.76C51.9677 19.396 51.4777 19.214 50.843 19.214C50.367 19.214 49.9517 19.3073 49.597 19.494C49.2424 19.6807 48.967 19.956 48.771 20.32C48.5844 20.684 48.491 21.1367 48.491 21.678V25.5H47.147V18.08H48.435V20.082L48.225 19.55C48.4677 19.0647 48.841 18.6867 49.345 18.416C49.849 18.1453 50.437 18.01 51.109 18.01Z" fill="#94A3B8"/>
<circle cx="78" cy="20.5" r="9" stroke="#94A3B8"/>
<path d="M78.5 16C78.5 16.2761 78.2761 16.5 78 16.5C77.7239 16.5 77.5 16.2761 77.5 16C77.5 15.7239 77.7239 15.5 78 15.5C78.2761 15.5 78.5 15.7239 78.5 16Z" fill="#94A3B8"/>
<path d="M78 25.5V18.5" stroke="#94A3B8"/>
</svg>
