<svg width="17" height="16" viewBox="0 0 17 16" fill="none" xmlns="http://www.w3.org/2000/svg">
<path d="M14.4437 13.1375L10.5482 9.24197C11.1527 8.46047 11.4797 7.50498 11.4797 6.49998C11.4797 5.29699 11.0102 4.16899 10.1612 3.31849C9.31221 2.468 8.18121 2 6.97972 2C5.77822 2 4.64723 2.4695 3.79823 3.31849C2.94773 4.16749 2.47974 5.29699 2.47974 6.49998C2.47974 7.70148 2.94923 8.83247 3.79823 9.68147C4.64723 10.532 5.77672 11 6.97972 11C7.98471 11 8.93871 10.673 9.72021 10.07L13.6157 13.9639C13.6271 13.9754 13.6407 13.9844 13.6556 13.9906C13.6705 13.9968 13.6865 14 13.7027 14C13.7188 14 13.7348 13.9968 13.7498 13.9906C13.7647 13.9844 13.7783 13.9754 13.7897 13.9639L14.4437 13.3115C14.4551 13.3 14.4642 13.2865 14.4704 13.2715C14.4766 13.2566 14.4797 13.2406 14.4797 13.2245C14.4797 13.2083 14.4766 13.1923 14.4704 13.1774C14.4642 13.1624 14.4551 13.1489 14.4437 13.1375ZM9.35571 8.87597C8.71971 9.51047 7.87671 9.85997 6.97972 9.85997C6.08272 9.85997 5.23972 9.51047 4.60373 8.87597C3.96923 8.23997 3.61973 7.39698 3.61973 6.49998C3.61973 5.60298 3.96923 4.75849 4.60373 4.12399C5.23972 3.48949 6.08272 3.14 6.97972 3.14C7.87671 3.14 8.72121 3.48799 9.35571 4.12399C9.9902 4.75999 10.3397 5.60298 10.3397 6.49998C10.3397 7.39698 9.9902 8.24147 9.35571 8.87597Z" fill="#B5B7B9"/>
</svg>
