<svg width="156" height="38" viewBox="0 0 156 38" fill="none" xmlns="http://www.w3.org/2000/svg">
<path fill-rule="evenodd" clip-rule="evenodd" d="M19 4.75C15.1297 4.75 14.6452 4.76615 13.1252 4.8355C11.608 4.90485 10.5716 5.14615 9.6653 5.4986C8.7153 5.8558 7.85365 6.4163 7.14115 7.1421C6.41651 7.85378 5.85567 8.71482 5.49765 9.6653C5.1471 10.5716 4.90485 11.609 4.8355 13.1262C4.7671 14.6452 4.75 15.1287 4.75 19C4.75 22.8713 4.76615 23.3548 4.8355 24.8748C4.90485 26.392 5.14615 27.4284 5.4986 28.3347C5.8558 29.2847 6.4163 30.1463 7.1421 30.8588C7.8538 31.5835 8.71483 32.1443 9.6653 32.5023C10.5716 32.8538 11.608 33.0951 13.1252 33.1645C14.6452 33.2338 15.1297 33.25 19 33.25C22.8703 33.25 23.3548 33.2338 24.8748 33.1645C26.392 33.0951 27.4284 32.8538 28.3347 32.5014C29.2847 32.1442 30.1463 31.5837 30.8588 30.8579C31.5835 30.1462 32.1443 29.2852 32.5023 28.3347C32.8538 27.4284 33.0951 26.392 33.1645 24.8748C33.2338 23.3548 33.25 22.8703 33.25 19C33.25 15.1297 33.2338 14.6452 33.1645 13.1252C33.0951 11.608 32.8538 10.5716 32.5014 9.6653C32.1436 8.71441 31.5828 7.853 30.8579 7.14115C30.1462 6.41651 29.2852 5.85567 28.3347 5.49765C27.4284 5.1471 26.391 4.90485 24.8738 4.8355C23.3548 4.7671 22.8713 4.75 19 4.75ZM19 7.31785C22.8048 7.31785 23.256 7.3321 24.7589 7.4005C26.1478 7.46415 26.9021 7.695 27.4046 7.89165C28.0697 8.1491 28.5447 8.4588 29.0434 8.9566C29.5422 9.45535 29.8509 9.93035 30.1084 10.5953C30.3041 11.0979 30.5358 11.8522 30.5995 13.2411C30.6679 14.744 30.6821 15.1952 30.6821 19C30.6821 22.8048 30.6679 23.256 30.5995 24.7589C30.5358 26.1478 30.305 26.9021 30.1084 27.4046C29.8803 28.0236 29.5164 28.5836 29.0434 29.0434C28.5837 29.5165 28.0237 29.8804 27.4046 30.1084C26.9021 30.3041 26.1478 30.5358 24.7589 30.5995C23.256 30.6679 22.8057 30.6821 19 30.6821C15.1943 30.6821 14.744 30.6679 13.2411 30.5995C11.8522 30.5358 11.0979 30.305 10.5953 30.1084C9.97638 29.8803 9.41641 29.5164 8.9566 29.0434C8.48367 28.5836 8.11977 28.0236 7.89165 27.4046C7.69595 26.9021 7.46415 26.1478 7.4005 24.7589C7.3321 23.256 7.31785 22.8048 7.31785 19C7.31785 15.1952 7.3321 14.744 7.4005 13.2411C7.46415 11.8522 7.695 11.0979 7.89165 10.5953C8.1491 9.93035 8.4588 9.45535 8.9566 8.9566C9.41634 8.48354 9.97634 8.11963 10.5953 7.89165C11.0979 7.69595 11.8522 7.46415 13.2411 7.4005C14.744 7.3321 15.1952 7.31785 19 7.31785Z" fill="white"/>
<path fill-rule="evenodd" clip-rule="evenodd" d="M19 23.7547C18.3756 23.7547 17.7573 23.6317 17.1805 23.3928C16.6036 23.1538 16.0794 22.8036 15.6379 22.3621C15.1964 21.9206 14.8462 21.3964 14.6072 20.8195C14.3683 20.2427 14.2453 19.6244 14.2453 19C14.2453 18.3756 14.3683 17.7573 14.6072 17.1804C14.8462 16.6035 15.1964 16.0794 15.6379 15.6379C16.0794 15.1963 16.6036 14.8461 17.1805 14.6072C17.7573 14.3682 18.3756 14.2452 19 14.2452C20.2611 14.2452 21.4705 14.7462 22.3622 15.6379C23.2538 16.5295 23.7548 17.7389 23.7548 19C23.7548 20.261 23.2538 21.4704 22.3622 22.3621C21.4705 23.2538 20.2611 23.7547 19 23.7547ZM19 11.6755C17.0575 11.6755 15.1944 12.4472 13.8208 13.8208C12.4472 15.1944 11.6755 17.0574 11.6755 19C11.6755 20.9425 12.4472 22.8056 13.8208 24.1792C15.1944 25.5528 17.0575 26.3245 19 26.3245C20.9426 26.3245 22.8056 25.5528 24.1792 24.1792C25.5528 22.8056 26.3245 20.9425 26.3245 19C26.3245 17.0574 25.5528 15.1944 24.1792 13.8208C22.8056 12.4472 20.9426 11.6755 19 11.6755ZM28.4554 11.5425C28.4554 12.0017 28.273 12.442 27.9483 12.7667C27.6236 13.0914 27.1832 13.2738 26.724 13.2738C26.2648 13.2738 25.8244 13.0914 25.4997 12.7667C25.175 12.442 24.9926 12.0017 24.9926 11.5425C24.9926 11.0833 25.175 10.6429 25.4997 10.3182C25.8244 9.99351 26.2648 9.8111 26.724 9.8111C27.1832 9.8111 27.6236 9.99351 27.9483 10.3182C28.273 10.6429 28.4554 11.0833 28.4554 11.5425Z" fill="white"/>
<path d="M93.8334 19.0961C93.8334 10.298 86.7454 3.16669 78.0001 3.16669C69.2548 3.16669 62.1667 10.298 62.1667 19.0961C62.1667 27.0486 67.9554 33.6385 75.5259 34.8334V23.7015H71.5063V19.095H75.5259V15.5864C75.5259 11.5942 77.8892 9.38813 81.5066 9.38813C83.2377 9.38813 85.0512 9.69952 85.0512 9.69952V13.6199H83.053C81.0865 13.6199 80.4743 14.8485 80.4743 16.1089V19.0961H84.8654L84.1635 23.7004H80.4743V34.8334C88.0447 33.6385 93.8334 27.0486 93.8334 19.0961Z" fill="white"/>
<path d="M149.591 12.5401C149.611 12.8193 149.611 13.0984 149.611 13.3802C149.611 21.9649 143.075 31.8656 131.125 31.8656V31.8604C127.595 31.8656 124.139 30.8544 121.167 28.9479C121.68 29.0096 122.196 29.0405 122.713 29.0418C125.639 29.0443 128.48 28.0628 130.782 26.2553C128.002 26.2025 125.564 24.3899 124.712 21.7436C125.686 21.9314 126.69 21.8928 127.645 21.6317C124.615 21.0193 122.434 18.3563 122.434 15.2636C122.434 15.2353 122.434 15.2083 122.434 15.1813C123.337 15.6843 124.348 15.9634 125.383 15.9943C122.528 14.0865 121.648 10.2888 123.372 7.31958C126.67 11.3784 131.537 13.8459 136.761 14.107C136.238 11.8506 136.953 9.48601 138.641 7.89979C141.258 5.44004 145.373 5.56611 147.833 8.18152C149.288 7.89464 150.682 7.36075 151.959 6.6043C151.474 8.10819 150.459 9.38567 149.103 10.1974C150.39 10.0456 151.649 9.70086 152.833 9.17469C151.961 10.4817 150.863 11.6203 149.591 12.5401Z" fill="white"/>
</svg>
